<svg height="150" viewBox="0 0 650 150" width="650" xmlns="http://www.w3.org/2000/svg" xmlns:xlink="http://www.w3.org/1999/xlink"><linearGradient id="a" x1="100%" x2="0%" y1="0%" y2="100%"><stop offset="0" stop-color="#9e1c14"/><stop offset=".511792588" stop-color="#d62c25"/><stop offset="1" stop-color="#9e1c14"/></linearGradient><g fill="none" fill-rule="evenodd"><g transform="translate(9 9)"><rect fill="url(#a)" height="133" rx="13" width="133"/><g stroke="#f4f3f9"><g transform="translate(15 23)"><path d="m0 0h16v88c-7.94057865-6.990311-13.27391199-13.6569777-16-20z" fill="#d1d1d1"/><path d="m16 88c-4.3621226-5.5272558-7.66414931-13.0098158-8.40097801-23.2v-56"/><path d="m0 0 7.6 8.8 8.4-8.8"/></g><g transform="translate(37 22)"><path d="m69.9285714 29.6 11.125-10.4c-8.5834052-12.8-21.0328099-19.2-37.3482143-19.2-24.4731065 0-43.93494898 22.1852035-42.91071424 44.8s16.68750004 43.2 42.91071424 43.2c26.2232143 0 43.6019153-21.5930427 44.5024496-40v-7.2h-29.4042353l-15.0982143 14.4h28.6071429c-4.3438985 9.131011-12.3584513 18.4-28.6071429 18.4-16.2486915 0-28.6071428-14.9817258-28.6071428-28.8s10.5933837-29.6 28.6071428-29.6c12.0091728 0 20.7502442 4.8 26.2232143 14.4z" fill="#d1d1d1"/><path d="m81.0535714 19.2h-10.7276785l-.3973215 10.4"/><path d="m43.7053571 55.2 17.0857606-6.8-1.9875463-7.6"/><path d="m60.7901786 48.4h19.8660714c-2.3865856 22.3056617-18.5719311 32.8-36.9508929 32.8-18.3789617 0-35.75892853-15.478734-35.75892853-36.4s17.17470793-37.2 35.75892853-37.2c12.3894805 0 21.2629924 3.8666667 26.6205358 11.6"/></g></g></g><text fill="#000" font-family="Courier-Bold, Courier" font-size="85" font-weight="bold" letter-spacing="-.5142857"><tspan x="163.276932" y="99">Interface</tspan></text></g></svg>