<svg height="342" viewBox="0 0 666 342" width="666" xmlns="http://www.w3.org/2000/svg"><g fill="none" fill-rule="evenodd"><g transform="matrix(1 0 0 -1 503 327)"><path d="m70.5 155.99142c14.6666667.292808 22-6.908835 22-21.604927s0-57.2302594 0-127.60250301" stroke="#c1c9d8" stroke-width="3"/><g fill="#c1c9d8"><text font-family="Courier-Bold, Courier" font-size="13" font-weight="bold" letter-spacing="-.514" transform="matrix(1 0 0 -1 0 16)"><tspan x="41.565" y="13">Linux</tspan></text><circle cx="92.5" cy="7.5" r="4.5"/><text font-family="Courier-Bold, Courier" font-size="13" font-weight="bold" letter-spacing="-.514" transform="matrix(1 0 0 -1 0 114)"><tspan x="104" y="62">REPL</tspan></text><circle cx="92.5" cy="56.5" r="4.5"/><text font-family="Courier-Bold, Courier" font-size="13" font-weight="bold" letter-spacing="-.514" transform="matrix(1 0 0 -1 0 214)"><tspan x=".843" y="112">SPM Support</tspan></text><circle cx="92.5" cy="105.5" r="4.5"/></g></g><path d="m10 171.5h566" stroke="#c1c9d8" stroke-linecap="square" stroke-width="3"/><g transform="translate(429 18)"><path d="m44.5 152.99142c14.6666667.292808 22-6.908835 22-21.604927s0-40.5828769 0-77.6603554" stroke="#4b536a" stroke-width="3"/><path d="m66.5 53.7261376v-41.7261376" stroke="#c1c9d8" stroke-width="3"/><text fill="#c1c9d8" font-family="Courier-Bold, Courier" font-size="13" font-weight="bold" letter-spacing="-.514"><tspan x="11.683" y="13">tvOS </tspan><tspan x=".496" y="29">watchOS</tspan></text><circle cx="66.5" cy="11.5" fill="#c1c9d8" r="4.5"/><g fill="#4b536a"><text font-family="Courier-Bold, Courier" font-size="13" font-weight="bold" letter-spacing="-.514"><tspan x="81" y="56">iOS</tspan></text><circle cx="66.5" cy="53.5" r="4.5"/><text font-family="Courier-Bold, Courier" font-size="13" font-weight="bold" letter-spacing="-.514"><tspan x="15.565" y="107">macOS</tspan></text><circle cx="66.5" cy="102.5" r="4.5"/></g></g><g transform="matrix(1 0 0 -1 326 277)"><path d="m47.5 105.99142c14.6666667.292808 22-6.9088346 22-21.6049266s0-24.3249232 0-28.8864934" stroke="#4b536a" stroke-width="3"/><text fill="#c1c9d8" font-family="Courier-Bold, Courier" font-size="13" font-weight="bold" letter-spacing="-.514" transform="matrix(1 0 0 -1 0 16)"><tspan x="84" y="13">Tests</tspan></text><path d="m69.5 55v-46.5" stroke="#c1c9d8" stroke-width="3"/><circle cx="69.5" cy="6.5" fill="#c1c9d8" r="4.5"/><g fill="#4b536a"><text font-family="Courier-Bold, Courier" font-size="13" font-weight="bold" letter-spacing="-.514" transform="matrix(1 0 0 -1 0 110)"><tspan x=".352" y="52">Services</tspan> <tspan x="3.996" y="68">Wrapper</tspan></text><circle cx="69.5" cy="55.5" r="4.5"/></g></g><g transform="translate(214 61)"><path d="m59.5 109.99142c14.6666667.292808 22-6.908835 22-21.6049266 0-14.696092 0-40.5828773 0-77.6603558" stroke="#4b536a" stroke-width="3"/><g fill="#4b536a"><text font-family="Courier-Bold, Courier" font-size="13" font-weight="bold" letter-spacing="-.514"><tspan x="97" y="13">Tests</tspan></text><circle cx="81.5" cy="10.5" r="4.5"/><text font-family="Courier-Bold, Courier" font-size="13" font-weight="bold" letter-spacing="-.514"><tspan x=".209" y="64">SQLite DB</tspan></text><circle cx="81.5" cy="59.5" r="4.5"/></g></g><g transform="matrix(1 0 0 -1 89 277)"><path d="m84.5 105.99142c14.6666667.292808 22-6.9088346 22-21.6049266s0-40.5828773 0-77.66035583" stroke="#4b536a" stroke-width="3"/><g fill="#4b536a"><text font-family="Courier-Bold, Courier" font-size="13" font-weight="bold" letter-spacing="-.514" transform="matrix(1 0 0 -1 0 16)"><tspan x="121" y="13">Tests</tspan></text><circle cx="106.5" cy="6.5" r="4.5"/><text font-family="Courier-Bold, Courier" font-size="13" font-weight="bold" letter-spacing="-.514" transform="matrix(1 0 0 -1 0 114)"><tspan x=".135" y="54">Lightstreamer</tspan> <tspan x=".135" y="70">Subscriptions</tspan></text><circle cx="106.5" cy="55.5" r="4.5"/></g></g><g transform="translate(19 61)"><path d="m54.5 109.99142c14.6666667.292808 22-6.908835 22-21.6049266 0-14.696092 0-40.5828773 0-77.6603558" stroke="#4b536a" stroke-width="3"/><g fill="#4b536a"><text font-family="Courier-Bold, Courier" font-size="13" font-weight="bold" letter-spacing="-.514"><tspan x="91" y="13">Tests</tspan></text><circle cx="76.5" cy="10.5" r="4.5"/><text font-family="Courier-Bold, Courier" font-size="13" font-weight="bold" letter-spacing="-.514"><tspan x="7.496" y="57">All API</tspan> <tspan x=".209" y="73">Endpoints</tspan></text><circle cx="76.5" cy="59.5" r="4.5"/></g></g><path d="m10 171.5h467" stroke="#4b536a" stroke-linecap="square" stroke-width="3"/></g></svg>