<svg height="175" viewBox="0 0 200 175" width="200" xmlns="http://www.w3.org/2000/svg" xmlns:xlink="http://www.w3.org/1999/xlink"><defs><linearGradient id="a" x1="100%" x2="0%" y1=".647%" y2="99.353%"><stop offset="0" stop-color="#9e1c14"/><stop offset=".51179" stop-color="#d62c25"/><stop offset="1" stop-color="#9e1c14"/></linearGradient><path id="b" d="m181.814587 143.119758c.122197-.485078.244394-.970155.36659-1.455233 5.376656-21.222138-7.698393-46.4461647-29.938195-59.664525 9.775737 13.0970909 14.052622 28.983377 10.264524 42.808084-.36659 1.212694-.73318 2.425387-1.221967 3.638081-.488787-.363808-1.099771-.727616-1.955148-1.091424 0 0-22.117606-13.582169-46.068162-37.4722326-.610984-.6063468 12.830655 19.0392896 27.983048 34.9255756-7.209606-4.001889-27.127671-18.432943-39.83613-29.8322625 1.588558 2.5466566 3.421508 5.0933135 5.376656 7.3974315 10.508918 13.339629 24.317147 29.710993 40.813703 42.323006-11.608688 7.033623-27.983048 7.63997-44.235211 0-4.032492-1.81904-7.8205902-4.123158-11.364295-6.669815 6.8430162 10.914243 17.474131 20.373253 30.426983 25.951644 15.396786 6.548545 30.793572 6.184737 42.157867.121269s.122197 0 .122197-.121269c.488787-.242539.977574-.606347 1.46636-.848886 5.498853-2.789195 16.252164-5.578391 22.117606 5.578391 1.710754 2.546656 4.765672-12.005667-6.476426-25.587835z"/><filter id="c" height="136%" width="132%" x="-19.2%" y="-21.6%"><feMorphology in="SourceAlpha" operator="dilate" radius=".5" result="shadowSpreadOuter1"/><feOffset dx="-2" dy="-2" in="shadowSpreadOuter1" result="shadowOffsetOuter1"/><feGaussianBlur in="shadowOffsetOuter1" result="shadowBlurOuter1" stdDeviation="4"/><feColorMatrix in="shadowBlurOuter1" values="0 0 0 0 0   0 0 0 0 0   0 0 0 0 0  0 0 0 0.5 0"/></filter></defs><g fill="none" fill-rule="evenodd"><g transform="translate(11)"><rect fill="url(#a)" height="153" rx="13" width="154"/><g stroke="#f4f3f9"><g transform="translate(17 26.149)"><path d="m0 0h18.5945946v101.115249c-9.22824006-8.0321257-15.42643826-15.6923718-18.5945946-22.9807386z" fill="#d1d1d1"/><path d="m18.5945946 101.115249c-5.0694938-6.3510211-8.90698434-14.9487589-9.76329878-26.6576567v-64.3460674"/><path d="m0 0 8.832 10.112 9.763-10.112"/></g><g transform="translate(43.313 25)"><path d="m80.522675 34.0114928 12.9290541-11.949984c-9.9753087-14.70767252-24.4435359-22.0615088-43.4046815-22.0615088-28.4417184 0-51.05953534 25.4916178-49.86920848 51.4768539s19.39358108 49.6383951 49.86920848 49.6383951 50.6724964-24.8112035 51.7190634-45.9614769v-8.2730658h-34.17249l-17.5465734 16.5461316h33.246139c-5.0483144 10.4918688-14.3625245 21.1422793-33.246139 21.1422793s-33.246139-17.2145561-33.246139-33.0922633 12.3112298-34.0114927 33.246139-34.0114927c13.9566062 0 24.1151487 5.5153772 30.4756274 16.5461316z" fill="#d1d1d1"/><path d="m93.452 22.062h-12.468l-.461 11.949"/><path d="m50.047 63.427 19.856-7.814-2.309-8.732"/><path d="m69.9023806 55.6133868h23.0875966c-2.7735995 25.6300289-21.5835957 37.688411-42.9429296 37.688411s-41.55767373-17.7856369-41.55767373-41.8249439c0-24.0393069 19.95979573-42.74417332 41.55767373-42.74417332 14.3985854 0 24.7110452 4.44294272 30.9373794 13.32882822"/></g></g></g><g fill-rule="nonzero"><use fill="#000" filter="url(#c)" xlink:href="#b"/><use fill="#f05138" xlink:href="#b"/></g></g></svg>